<?xml version="1.0" encoding="iso-8859-1"?>
<!-- Generator: Adobe Illustrator 19.0.0, SVG Export Plug-In . SVG Version: 6.00 Build 0)  -->
<svg version="1.1" id="Layer_1" xmlns="http://www.w3.org/2000/svg" xmlns:xlink="http://www.w3.org/1999/xlink" x="0px" y="0px"
	 viewBox="0 0 512 512" style="enable-background:new 0 0 512 512;" xml:space="preserve">
<path style="fill:#FFC033;" d="M361.739,105.739H150.261c-27.619,0-50.087-22.468-50.087-50.087s22.468-50.087,50.087-50.087
	h211.478c27.619,0,50.087,22.468,50.087,50.087S389.358,105.739,361.739,105.739z"/>
<path style="fill:#F9A926;" d="M361.739,5.565H256v100.174h105.739c27.619,0,50.087-22.468,50.087-50.087
	S389.358,5.565,361.739,5.565z"/>
<path style="fill:#FFE14D;" d="M395.13,172.522H116.87c-27.619,0-50.087-22.468-50.087-50.087s22.468-50.087,50.087-50.087H395.13
	c27.619,0,50.087,22.468,50.087,50.087S422.749,172.522,395.13,172.522z"/>
<path style="fill:#FFCC33;" d="M395.13,72.348H256v100.174h139.13c27.619,0,50.087-22.468,50.087-50.087
	S422.749,72.348,395.13,72.348z"/>
<path style="fill:#FFC033;" d="M361.739,506.435H150.261c-27.619,0-50.087-22.468-50.087-50.087s22.468-50.087,50.087-50.087
	h211.478c27.619,0,50.087,22.468,50.087,50.087S389.358,506.435,361.739,506.435z"/>
<path style="fill:#F9A926;" d="M361.739,406.261H256v100.174h105.739c27.619,0,50.087-22.468,50.087-50.087
	S389.358,406.261,361.739,406.261z"/>
<path style="fill:#FFE14D;" d="M395.13,439.652H116.87c-27.619,0-50.087-22.468-50.087-50.087c0-27.619,22.468-50.087,50.087-50.087
	H395.13c27.619,0,50.087,22.468,50.087,50.087C445.217,417.184,422.749,439.652,395.13,439.652z"/>
<path style="fill:#FFCC33;" d="M395.13,339.478H256v100.174h139.13c27.619,0,50.087-22.468,50.087-50.087
	C445.217,361.946,422.749,339.478,395.13,339.478z"/>
<path style="fill:#FFC033;" d="M428.522,239.304H83.478c-27.619,0-50.087-22.468-50.087-50.087s22.468-50.087,50.087-50.087h345.043
	c27.619,0,50.087,22.468,50.087,50.087S456.141,239.304,428.522,239.304z"/>
<path style="fill:#F9A926;" d="M428.522,139.13H256v100.174h172.522c27.619,0,50.087-22.468,50.087-50.087
	S456.141,139.13,428.522,139.13z"/>
<path style="fill:#FFC033;" d="M428.522,372.87H83.478c-27.619,0-50.087-22.468-50.087-50.087s22.468-50.087,50.087-50.087h345.043
	c27.619,0,50.087,22.468,50.087,50.087S456.141,372.87,428.522,372.87z"/>
<path style="fill:#F9A926;" d="M428.522,272.696H256V372.87h172.522c27.619,0,50.087-22.468,50.087-50.087
	S456.141,272.696,428.522,272.696z"/>
<path style="fill:#FFE14D;" d="M461.913,306.087H50.087C22.468,306.087,0,283.619,0,256s22.468-50.087,50.087-50.087h411.826
	C489.532,205.913,512,228.381,512,256S489.532,306.087,461.913,306.087z"/>
<path style="fill:#FFCC33;" d="M461.913,205.913H256v100.174h205.913C489.532,306.087,512,283.619,512,256
	S489.532,205.913,461.913,205.913z"/>
<path style="fill:#A6673A;" d="M256,306.087c-38.757,0-66.783,32.769-66.783,69.12v64.445h133.565V372.87
	C322.783,336.028,292.843,306.087,256,306.087z"/>
<path style="fill:#99522E;" d="M322.783,372.87v66.783H256V306.087C292.843,306.087,322.783,336.028,322.783,372.87z"/>
<g>
</g>
<g>
</g>
<g>
</g>
<g>
</g>
<g>
</g>
<g>
</g>
<g>
</g>
<g>
</g>
<g>
</g>
<g>
</g>
<g>
</g>
<g>
</g>
<g>
</g>
<g>
</g>
<g>
</g>
</svg>
