<?xml version="1.0" encoding="UTF-8"?>
<svg xmlns="http://www.w3.org/2000/svg" xmlns:xlink="http://www.w3.org/1999/xlink" width="48pt" height="48pt" viewBox="0 0 48 48" version="1.1">
<g id="surface1">
<path style=" stroke:none;fill-rule:nonzero;fill:rgb(100%,75.294118%,20%);fill-opacity:1;" d="M 33.914062 9.914062 L 14.085938 9.914062 C 11.496094 9.914062 9.390625 7.808594 9.390625 5.21875 C 9.390625 2.628906 11.496094 0.523438 14.085938 0.523438 L 33.914062 0.523438 C 36.503906 0.523438 38.609375 2.628906 38.609375 5.21875 C 38.609375 7.808594 36.503906 9.914062 33.914062 9.914062 Z M 33.914062 9.914062 "/>
<path style=" stroke:none;fill-rule:nonzero;fill:rgb(97.647059%,66.27451%,14.901961%);fill-opacity:1;" d="M 33.914062 0.523438 L 24 0.523438 L 24 9.914062 L 33.914062 9.914062 C 36.503906 9.914062 38.609375 7.808594 38.609375 5.21875 C 38.609375 2.628906 36.503906 0.523438 33.914062 0.523438 Z M 33.914062 0.523438 "/>
<path style=" stroke:none;fill-rule:nonzero;fill:rgb(100%,88.235294%,30.196078%);fill-opacity:1;" d="M 37.042969 16.175781 L 10.957031 16.175781 C 8.367188 16.175781 6.261719 14.066406 6.261719 11.476562 C 6.261719 8.890625 8.367188 6.78125 10.957031 6.78125 L 37.042969 6.78125 C 39.632812 6.78125 41.738281 8.890625 41.738281 11.476562 C 41.738281 14.066406 39.632812 16.175781 37.042969 16.175781 Z M 37.042969 16.175781 "/>
<path style=" stroke:none;fill-rule:nonzero;fill:rgb(100%,80%,20%);fill-opacity:1;" d="M 37.042969 6.78125 L 24 6.78125 L 24 16.175781 L 37.042969 16.175781 C 39.632812 16.175781 41.738281 14.066406 41.738281 11.476562 C 41.738281 8.890625 39.632812 6.78125 37.042969 6.78125 Z M 37.042969 6.78125 "/>
<path style=" stroke:none;fill-rule:nonzero;fill:rgb(100%,75.294118%,20%);fill-opacity:1;" d="M 33.914062 47.476562 L 14.085938 47.476562 C 11.496094 47.476562 9.390625 45.371094 9.390625 42.78125 C 9.390625 40.191406 11.496094 38.085938 14.085938 38.085938 L 33.914062 38.085938 C 36.503906 38.085938 38.609375 40.191406 38.609375 42.78125 C 38.609375 45.371094 36.503906 47.476562 33.914062 47.476562 Z M 33.914062 47.476562 "/>
<path style=" stroke:none;fill-rule:nonzero;fill:rgb(97.647059%,66.27451%,14.901961%);fill-opacity:1;" d="M 33.914062 38.085938 L 24 38.085938 L 24 47.476562 L 33.914062 47.476562 C 36.503906 47.476562 38.609375 45.371094 38.609375 42.78125 C 38.609375 40.191406 36.503906 38.085938 33.914062 38.085938 Z M 33.914062 38.085938 "/>
<path style=" stroke:none;fill-rule:nonzero;fill:rgb(100%,88.235294%,30.196078%);fill-opacity:1;" d="M 37.042969 41.21875 L 10.957031 41.21875 C 8.367188 41.21875 6.261719 39.109375 6.261719 36.523438 C 6.261719 33.933594 8.367188 31.824219 10.957031 31.824219 L 37.042969 31.824219 C 39.632812 31.824219 41.738281 33.933594 41.738281 36.523438 C 41.738281 39.109375 39.632812 41.21875 37.042969 41.21875 Z M 37.042969 41.21875 "/>
<path style=" stroke:none;fill-rule:nonzero;fill:rgb(100%,80%,20%);fill-opacity:1;" d="M 37.042969 31.824219 L 24 31.824219 L 24 41.21875 L 37.042969 41.21875 C 39.632812 41.21875 41.738281 39.109375 41.738281 36.523438 C 41.738281 33.933594 39.632812 31.824219 37.042969 31.824219 Z M 37.042969 31.824219 "/>
<path style=" stroke:none;fill-rule:nonzero;fill:rgb(100%,75.294118%,20%);fill-opacity:1;" d="M 40.175781 22.433594 L 7.824219 22.433594 C 5.238281 22.433594 3.128906 20.328125 3.128906 17.738281 C 3.128906 15.148438 5.238281 13.042969 7.824219 13.042969 L 40.175781 13.042969 C 42.761719 13.042969 44.871094 15.148438 44.871094 17.738281 C 44.871094 20.328125 42.761719 22.433594 40.175781 22.433594 Z M 40.175781 22.433594 "/>
<path style=" stroke:none;fill-rule:nonzero;fill:rgb(97.647059%,66.27451%,14.901961%);fill-opacity:1;" d="M 40.175781 13.042969 L 24 13.042969 L 24 22.433594 L 40.175781 22.433594 C 42.761719 22.433594 44.871094 20.328125 44.871094 17.738281 C 44.871094 15.148438 42.761719 13.042969 40.175781 13.042969 Z M 40.175781 13.042969 "/>
<path style=" stroke:none;fill-rule:nonzero;fill:rgb(100%,75.294118%,20%);fill-opacity:1;" d="M 40.175781 34.957031 L 7.824219 34.957031 C 5.238281 34.957031 3.128906 32.851562 3.128906 30.261719 C 3.128906 27.671875 5.238281 25.566406 7.824219 25.566406 L 40.175781 25.566406 C 42.761719 25.566406 44.871094 27.671875 44.871094 30.261719 C 44.871094 32.851562 42.761719 34.957031 40.175781 34.957031 Z M 40.175781 34.957031 "/>
<path style=" stroke:none;fill-rule:nonzero;fill:rgb(97.647059%,66.27451%,14.901961%);fill-opacity:1;" d="M 40.175781 25.566406 L 24 25.566406 L 24 34.957031 L 40.175781 34.957031 C 42.761719 34.957031 44.871094 32.851562 44.871094 30.261719 C 44.871094 27.671875 42.761719 25.566406 40.175781 25.566406 Z M 40.175781 25.566406 "/>
<path style=" stroke:none;fill-rule:nonzero;fill:rgb(100%,88.235294%,30.196078%);fill-opacity:1;" d="M 43.304688 28.695312 L 4.695312 28.695312 C 2.105469 28.695312 0 26.589844 0 24 C 0 21.410156 2.105469 19.304688 4.695312 19.304688 L 43.304688 19.304688 C 45.894531 19.304688 48 21.410156 48 24 C 48 26.589844 45.894531 28.695312 43.304688 28.695312 Z M 43.304688 28.695312 "/>
<path style=" stroke:none;fill-rule:nonzero;fill:rgb(100%,80%,20%);fill-opacity:1;" d="M 43.304688 19.304688 L 24 19.304688 L 24 28.695312 L 43.304688 28.695312 C 45.894531 28.695312 48 26.589844 48 24 C 48 21.410156 45.894531 19.304688 43.304688 19.304688 Z M 43.304688 19.304688 "/>
<path style=" stroke:none;fill-rule:nonzero;fill:rgb(65.098039%,40.392157%,22.745098%);fill-opacity:1;" d="M 24 28.695312 C 20.367188 28.695312 17.738281 31.769531 17.738281 35.175781 L 17.738281 41.21875 L 30.261719 41.21875 L 30.261719 34.957031 C 30.261719 31.503906 27.453125 28.695312 24 28.695312 Z M 24 28.695312 "/>
<path style=" stroke:none;fill-rule:nonzero;fill:rgb(60%,32.156863%,18.039216%);fill-opacity:1;" d="M 30.261719 34.957031 L 30.261719 41.21875 L 24 41.21875 L 24 28.695312 C 27.453125 28.695312 30.261719 31.503906 30.261719 34.957031 Z M 30.261719 34.957031 "/>
</g>
</svg>
